<?xml version="1.0" standalone="no"?>
<!DOCTYPE svg PUBLIC "-//W3C//DTD SVG 20010904//EN"
 "http://www.w3.org/TR/2001/REC-SVG-20010904/DTD/svg10.dtd">
<svg version="1.0" xmlns="http://www.w3.org/2000/svg"
 width="984.000000pt" height="984.000000pt" viewBox="0 0 984.000000 984.000000"
 preserveAspectRatio="xMidYMid meet">
<metadata>
Created by potrace 1.14, written by Peter Selinger 2001-2017
</metadata>
<g transform="translate(0.000000,984.000000) scale(0.100000,-0.100000)"
fill="#000000" stroke="none">
<path d="M5525 8967 c-43 -21 -67 -67 -92 -175 -13 -59 -26 -114 -28 -122 -2
-8 -13 -55 -24 -105 -11 -49 -25 -105 -30 -123 -5 -18 -9 -33 -9 -35 1 -2 -18
-88 -39 -177 -3 -14 -7 -29 -8 -35 -2 -5 -18 -71 -36 -145 -18 -74 -34 -143
-35 -152 -1 -10 -2 -19 -4 -20 -2 -3 -4 -13 -13 -58 -3 -14 -17 -72 -31 -130
-13 -58 -27 -116 -30 -130 -3 -14 -7 -35 -10 -47 -4 -13 -8 -31 -10 -40 -12
-50 -37 -160 -40 -178 -2 -11 -13 -56 -24 -100 -22 -88 -50 -211 -56 -241 -2
-10 -11 -46 -19 -79 -9 -33 -18 -71 -21 -85 -9 -43 -15 -71 -20 -88 -3 -9 -7
-28 -10 -42 -5 -24 -21 -93 -51 -220 -13 -58 -114 -495 -120 -520 -2 -8 -13
-55 -25 -105 -12 -49 -24 -101 -26 -115 -3 -14 -10 -43 -16 -65 -7 -22 -12
-48 -14 -57 -1 -10 -2 -19 -3 -20 -2 -2 -4 -13 -7 -25 -2 -12 -17 -77 -33
-145 -16 -68 -32 -134 -35 -148 -4 -20 -75 -324 -91 -390 -2 -8 -11 -47 -19
-86 -9 -40 -18 -78 -21 -85 -2 -8 -6 -25 -9 -39 -2 -14 -27 -122 -56 -240 -28
-118 -53 -226 -56 -239 -3 -12 -12 -53 -20 -90 -9 -36 -17 -73 -19 -81 -2 -8
-20 -85 -40 -170 -20 -85 -39 -166 -41 -179 -3 -14 -14 -61 -25 -105 -11 -45
-22 -90 -24 -101 -8 -31 -17 -84 -16 -90 0 -2 -6 -23 -14 -45 -8 -22 -14 -43
-14 -45 0 -5 -5 -32 -16 -80 -9 -42 -67 -291 -71 -310 -3 -11 -7 -29 -9 -40
-3 -11 -7 -29 -10 -40 -12 -49 -36 -152 -41 -175 -2 -14 -7 -33 -10 -42 -3 -9
-7 -25 -9 -35 -2 -10 -22 -99 -45 -198 -23 -99 -44 -187 -45 -195 -2 -8 -4
-15 -5 -15 -2 0 -6 -22 -14 -67 -2 -14 -7 -35 -10 -46 -4 -11 -9 -30 -11 -41
-3 -12 -7 -29 -9 -39 -37 -157 -80 -342 -91 -392 -1 -8 -8 -33 -13 -55 -6 -22
-13 -51 -16 -65 -3 -14 -7 -35 -10 -48 -4 -12 -8 -31 -11 -43 -2 -11 -6 -28
-9 -37 -3 -9 -8 -33 -11 -52 -3 -19 -11 -53 -17 -75 -16 -57 -11 -105 15 -142
29 -43 77 -63 212 -88 11 -3 38 -9 60 -14 56 -14 98 -24 112 -27 7 -1 40 -9
75 -18 135 -33 187 -30 228 13 25 26 50 87 56 136 1 11 11 56 22 100 12 44 24
95 27 114 3 19 8 37 10 41 2 4 7 21 10 39 3 18 15 72 26 119 11 48 23 98 25
112 3 14 9 41 15 60 5 19 23 94 39 165 17 72 44 189 60 260 17 72 33 141 36
155 3 13 21 89 40 168 18 79 36 153 38 165 2 12 9 41 15 65 7 24 14 55 16 70
2 15 14 65 25 112 12 47 23 92 25 100 2 8 10 44 20 79 9 35 14 66 11 68 -3 3
-1 13 4 23 5 9 12 30 15 46 3 16 11 53 19 82 8 28 12 52 10 52 -3 0 0 9 6 19
5 11 13 36 16 56 8 54 10 63 29 135 9 36 19 76 22 90 2 14 11 54 20 90 8 36
16 72 18 80 1 8 8 35 15 60 7 25 14 54 15 65 1 11 3 20 5 20 1 0 3 9 5 20 1
11 15 72 30 135 15 63 28 122 30 130 2 8 4 17 5 20 1 3 2 8 2 11 -1 4 3 22 9
40 6 19 12 45 15 59 3 14 9 41 14 60 5 19 11 46 13 60 3 14 10 45 17 70 7 25
14 56 17 70 2 14 11 52 20 85 8 33 17 71 19 85 3 14 20 88 38 165 39 163 75
321 81 350 2 11 4 21 5 23 2 1 3 5 4 10 10 38 17 70 20 87 2 11 12 52 21 90 9
39 18 79 20 90 2 11 8 35 13 53 6 18 11 35 11 37 0 3 3 15 6 28 3 12 7 33 9
47 2 14 14 63 26 110 12 47 23 94 24 105 2 11 8 38 14 60 6 22 13 51 16 65 2
14 13 63 24 110 50 207 64 267 68 290 3 14 7 31 9 39 3 7 12 45 21 85 8 39 17
79 20 89 10 39 15 63 20 87 3 14 7 33 10 42 5 16 10 40 20 87 3 14 18 79 34
145 16 67 31 132 34 146 2 14 14 62 25 107 12 45 22 93 23 107 1 14 6 26 10
26 4 0 7 3 6 8 -1 5 8 63 17 102 1 3 11 49 24 103 13 54 24 106 26 115 2 9 4
17 5 17 1 0 4 11 6 25 3 14 13 61 24 105 27 115 89 379 106 455 8 36 19 83 25
105 6 22 13 51 15 65 3 14 8 34 11 45 4 11 7 27 8 35 1 8 9 44 18 80 23 93 25
111 14 150 -16 60 -53 83 -184 115 -65 16 -126 29 -135 29 -10 0 -18 5 -18 10
0 5 -2 7 -6 4 -3 -3 -22 -2 -42 3 -34 9 -64 16 -102 24 -8 2 -15 4 -15 5 0 13
-146 19 -170 7z"/>
<path d="M2225 7947 c-8 -4 -28 -27 -45 -52 -16 -24 -36 -49 -43 -57 -7 -7
-23 -29 -37 -48 -13 -19 -31 -42 -39 -51 -9 -9 -23 -26 -31 -38 -22 -32 -89
-122 -108 -146 -9 -11 -50 -65 -90 -119 -41 -54 -80 -105 -87 -114 -8 -10 -77
-100 -154 -202 -77 -102 -150 -196 -161 -208 -11 -13 -20 -25 -20 -28 0 -3
-73 -100 -142 -189 -5 -5 -22 -28 -39 -50 -16 -22 -35 -47 -42 -55 -7 -8 -54
-71 -106 -140 -111 -147 -151 -200 -169 -218 -6 -7 -12 -17 -12 -21 0 -4 -18
-27 -40 -51 -22 -25 -40 -50 -40 -57 0 -6 -3 -13 -8 -15 -4 -1 -30 -32 -57
-68 -28 -36 -54 -70 -60 -77 -16 -19 -23 -28 -155 -203 -68 -91 -128 -169
-132 -175 -5 -5 -22 -28 -38 -50 -16 -22 -33 -44 -38 -50 -112 -144 -172 -226
-172 -235 0 -5 -8 -10 -17 -10 -9 0 -14 -3 -10 -6 3 -3 -25 -45 -62 -93 -67
-85 -71 -98 -45 -130 52 -65 81 -101 94 -121 8 -12 27 -36 42 -54 15 -17 28
-34 28 -37 0 -3 8 -15 18 -27 10 -11 27 -33 38 -47 21 -29 137 -181 157 -205
7 -8 30 -40 52 -70 44 -60 63 -85 82 -105 7 -8 13 -18 13 -23 0 -6 7 -12 15
-16 8 -3 15 -12 15 -20 0 -8 4 -16 8 -18 5 -1 51 -59 103 -128 51 -69 96 -127
99 -130 3 -3 45 -59 95 -125 49 -66 92 -122 95 -125 3 -3 25 -32 50 -65 54
-73 60 -81 83 -106 9 -10 17 -22 17 -26 0 -5 14 -24 30 -43 40 -47 42 -50 70
-90 14 -19 31 -41 38 -49 7 -7 21 -26 30 -40 9 -14 22 -30 29 -34 7 -4 13 -14
13 -22 0 -7 4 -15 8 -17 4 -1 37 -41 73 -88 98 -128 202 -266 219 -290 8 -13
20 -28 25 -34 6 -6 40 -49 75 -96 35 -47 70 -91 77 -98 7 -7 13 -16 13 -20 0
-4 14 -21 30 -39 17 -18 30 -35 30 -38 0 -7 52 -74 88 -115 12 -13 22 -28 22
-32 0 -3 6 -13 13 -20 7 -7 35 -42 62 -78 27 -36 53 -66 57 -68 4 -2 8 -9 8
-15 1 -7 21 -34 45 -62 l44 -50 680 0 c464 0 681 3 681 10 0 6 -13 25 -30 43
-16 18 -30 36 -30 40 0 4 -13 21 -28 39 -15 17 -36 44 -47 59 -34 46 -212 282
-224 296 -6 7 -25 31 -42 53 -16 22 -35 47 -42 55 -7 9 -59 78 -117 155 -57
77 -107 142 -110 145 -8 7 -151 195 -175 230 -25 36 -138 183 -145 190 -3 3
-17 21 -30 40 -13 19 -27 37 -30 40 -3 3 -25 32 -50 65 -25 33 -48 64 -53 70
-4 5 -21 28 -37 50 -16 22 -35 47 -42 54 -7 8 -29 38 -50 65 -20 28 -41 56
-45 61 -5 6 -24 30 -43 55 -19 25 -38 47 -42 48 -5 2 -8 10 -8 17 0 8 -6 18
-13 22 -7 4 -20 19 -29 33 -8 14 -24 35 -34 47 -11 11 -26 31 -34 43 -8 12
-23 32 -34 43 -10 12 -32 42 -49 67 -17 25 -39 54 -49 64 -10 11 -30 38 -45
60 -16 22 -35 48 -43 57 -19 22 -18 21 -125 164 -49 66 -92 122 -95 125 -4 4
-63 81 -102 135 -5 5 -27 35 -51 65 -24 30 -53 70 -66 87 l-22 33 157 207 c87
115 174 229 193 254 20 25 45 58 56 73 11 16 25 33 30 40 6 6 44 56 85 111 41
55 77 102 80 105 3 3 17 21 30 40 13 19 27 37 30 40 3 3 39 50 79 105 41 55
88 115 105 133 16 17 27 32 23 32 -4 0 1 8 10 19 10 10 26 29 36 42 115 152
148 196 155 204 4 6 70 93 147 195 77 102 142 187 145 190 3 3 39 50 80 105
41 55 77 102 80 105 6 5 173 224 205 269 65 90 148 196 156 199 5 2 9 9 9 15
0 7 18 32 40 57 22 24 40 47 40 51 0 3 12 19 26 35 14 16 36 45 49 65 13 20
29 42 37 50 7 8 41 51 76 97 57 74 61 82 40 83 -181 5 -1343 2 -1353 -4z"/>
<path d="M6267 7950 l-26 -5 29 -34 c17 -18 30 -36 30 -40 0 -5 11 -19 71 -89
10 -12 19 -25 19 -30 0 -4 16 -24 35 -46 19 -21 35 -41 35 -45 0 -3 10 -17 23
-31 12 -14 34 -41 47 -60 32 -46 136 -180 155 -201 8 -9 15 -20 15 -26 0 -6 7
-13 15 -17 8 -3 15 -10 15 -16 0 -6 6 -17 13 -24 14 -15 35 -42 118 -151 33
-44 66 -88 74 -98 8 -9 15 -22 15 -27 0 -6 4 -10 8 -10 5 0 26 -25 47 -55 20
-30 41 -55 46 -55 5 0 9 -5 9 -11 0 -6 19 -34 43 -63 23 -30 50 -64 59 -77 19
-26 202 -268 215 -284 5 -5 65 -84 133 -175 69 -91 127 -167 130 -170 3 -3 28
-35 55 -72 27 -38 53 -68 58 -68 4 0 6 -4 3 -9 -4 -5 -3 -11 1 -13 5 -1 30
-32 58 -68 27 -36 55 -71 62 -78 7 -7 13 -17 13 -21 0 -4 8 -16 18 -27 10 -10
52 -64 92 -119 41 -55 80 -106 87 -115 27 -33 139 -180 158 -206 11 -15 39
-51 63 -80 23 -29 42 -57 42 -62 0 -6 4 -12 8 -14 4 -1 29 -31 55 -66 46 -59
48 -69 24 -97 -4 -5 -25 -34 -47 -62 -21 -29 -44 -59 -52 -67 -29 -34 -38 -46
-38 -55 0 -5 -3 -11 -8 -13 -4 -1 -36 -41 -72 -88 -35 -47 -68 -89 -72 -95
-15 -20 -86 -113 -208 -275 -69 -91 -128 -166 -132 -168 -5 -2 -8 -7 -8 -12 0
-5 -9 -19 -20 -32 -11 -12 -90 -115 -176 -228 -85 -113 -160 -212 -167 -220
-7 -9 -39 -52 -72 -95 -33 -44 -62 -82 -65 -85 -3 -3 -37 -48 -75 -100 -38
-52 -72 -97 -76 -100 -3 -3 -57 -72 -119 -155 -62 -82 -117 -151 -121 -153 -5
-2 -9 -8 -9 -13 0 -5 -34 -52 -75 -104 -41 -51 -75 -97 -75 -101 0 -4 -7 -14
-15 -23 -40 -44 -52 -59 -75 -91 -27 -39 -29 -42 -63 -85 -18 -23 -120 -158
-189 -250 -4 -5 -18 -23 -31 -40 -87 -111 -127 -165 -127 -172 0 -5 308 -8
685 -8 653 0 685 1 697 18 7 10 55 73 106 140 50 67 152 201 224 297 73 96
135 177 138 180 3 3 32 41 65 85 33 44 63 85 67 90 4 6 20 26 35 45 16 19 62
80 103 135 41 55 80 106 85 113 6 7 18 22 28 33 9 10 17 21 17 24 0 3 199 265
258 340 21 27 240 315 257 339 11 16 25 33 30 40 6 6 53 67 105 136 52 69 175
231 273 360 99 129 189 248 201 264 11 15 39 52 62 80 22 28 49 65 60 81 10
17 24 35 29 40 6 6 23 26 38 46 25 34 25 37 10 60 -9 13 -19 26 -22 29 -3 3
-55 70 -115 150 -60 80 -144 189 -185 244 -42 54 -80 106 -86 115 -5 9 -13 18
-16 21 -3 3 -24 30 -47 60 -49 64 -51 67 -170 225 -50 66 -98 127 -106 136 -9
9 -16 20 -16 26 0 6 -7 13 -15 17 -8 3 -15 12 -15 20 0 8 -4 16 -8 18 -5 2
-51 59 -103 128 -52 69 -96 127 -99 130 -3 3 -53 68 -110 145 -58 77 -107 142
-110 145 -6 6 -110 142 -164 215 -21 28 -43 57 -49 65 -7 8 -68 89 -137 180
-68 91 -127 167 -130 170 -3 3 -22 27 -41 54 -18 27 -46 63 -61 80 -16 17 -28
34 -28 38 0 3 -7 14 -15 22 -15 15 -127 160 -170 221 -11 15 -27 36 -35 45 -8
9 -19 24 -25 33 -33 51 -128 167 -138 168 -70 3 -1320 3 -1340 -1z"/>
</g>
</svg>
